<svg width="129" height="9" viewBox="0 0 129 9" fill="none" xmlns="http://www.w3.org/2000/svg">
<path fill-rule="evenodd" clip-rule="evenodd" d="M72.6565 5.05347C72.6565 7.35747 74.0365 8.71347 76.0405 8.71347C76.8085 8.71347 77.4325 8.52147 77.9125 8.13747C78.4045 7.75347 78.7645 7.30947 79.0045 6.80547H79.4845C79.1845 7.29747 78.9325 7.84947 78.7885 8.55747H79.6045L80.4685 4.52547H76.5565L76.4005 5.31747H79.4005C79.0885 6.63747 77.9125 7.92147 76.2085 7.92147C74.6485 7.92147 73.5565 6.86547 73.5565 5.05347C73.5325 2.86947 74.9965 0.733473 77.1565 0.793473C78.6685 0.793473 79.5805 1.72947 79.8685 2.78547L80.7685 2.49747C80.4565 1.26147 79.2925 0.00147285 77.2285 0.00147285C74.4925 -0.0705269 72.6205 2.50947 72.6565 5.05347ZM90.6772 1.36947H89.8492L90.1132 0.157473H90.9412L90.6772 1.36947ZM89.1292 8.55747H88.3372L89.5852 2.64147H90.3892L89.1292 8.55747ZM107.509 8.55747H108.301L109.561 2.64147H108.757L107.509 8.55747ZM109.849 1.36947H109.021L109.285 0.157473H110.113L109.849 1.36947ZM83.5698 8.71347C82.4898 8.71347 81.8058 8.01747 81.8058 6.85347C81.8058 6.60147 81.8418 6.33747 81.9018 6.06147L82.6338 2.64147H83.4378L82.6938 6.15747C82.6458 6.37347 82.6217 6.57747 82.6217 6.75747C82.6217 7.53747 83.0537 8.00547 83.7858 8.00547C84.3737 8.00547 84.8418 7.76547 85.2138 7.29747C85.5858 6.81747 85.8618 6.20547 86.0178 5.47347L86.6178 2.64147H87.4218L86.1618 8.55747H85.4778C85.5738 8.08947 85.8737 7.58547 86.1738 7.20147H85.6338C85.2858 7.84947 84.7818 8.67747 83.5698 8.71347ZM91.4098 6.36147C91.4098 7.83747 92.3338 8.71347 93.4858 8.71347C94.3498 8.71347 94.9858 8.17347 95.3818 7.39347H95.9098C95.6098 7.81347 95.3578 8.23347 95.2978 8.55747H95.9938L97.7818 0.157473H96.9778L96.5578 2.16147C96.4738 2.55747 96.4378 2.90547 96.4378 3.18147C96.4378 3.50547 96.4978 3.82947 96.6178 4.15347H96.1258C95.9698 3.20547 95.4178 2.47347 94.2658 2.47347C92.6098 2.42547 91.3858 4.41747 91.4098 6.36147ZM93.7258 8.00547C94.9738 8.05347 95.9458 6.40947 95.9218 4.94547C95.9218 3.78147 95.3338 3.19347 94.4218 3.19347C93.1258 3.14547 92.2018 4.76547 92.2258 6.30147C92.2258 7.41747 92.8858 8.00547 93.7258 8.00547ZM100.533 8.71347C99.2373 8.71347 98.2773 7.89747 98.2773 6.26547C98.2412 4.47747 99.4773 2.42547 101.313 2.47347C102.693 2.47347 103.509 3.43347 103.509 4.74147C103.509 5.06547 103.461 5.40147 103.365 5.74947H99.1053C99.0693 5.94147 99.0452 6.14547 99.0452 6.34947C99.0452 7.29747 99.5853 8.01747 100.557 8.01747C101.553 8.01747 102.189 7.39347 102.561 6.70947L103.257 7.06947C102.645 8.16147 101.745 8.71347 100.533 8.71347ZM99.2373 5.06547C99.5492 3.93747 100.341 3.14547 101.277 3.14547C102.177 3.14547 102.705 3.76947 102.705 4.64547C102.705 4.75347 102.693 4.89747 102.669 5.06547H99.2373ZM104.544 8.55747H105.336L107.124 0.157473H106.332L104.544 8.55747ZM111.278 8.55747H110.486L111.734 2.64147H112.526C112.442 3.02547 112.214 3.37347 111.83 3.91347H112.346C112.526 3.54147 112.778 3.21747 113.09 2.91747C113.402 2.61747 113.81 2.47347 114.302 2.47347C115.49 2.47347 116.174 3.22947 116.174 4.36947C116.174 4.58547 116.15 4.82547 116.09 5.07747L115.346 8.55747H114.53L115.274 5.05347C115.322 4.86147 115.346 4.66947 115.346 4.46547C115.346 3.64947 114.89 3.19347 114.122 3.19347C112.85 3.19347 112.13 4.56147 111.89 5.71347L111.278 8.55747ZM117.531 6.26547C117.531 7.89747 118.491 8.71347 119.787 8.71347C120.999 8.71347 121.899 8.16147 122.511 7.06947L121.815 6.70947C121.443 7.39347 120.807 8.01747 119.811 8.01747C118.839 8.01747 118.299 7.29747 118.299 6.34947C118.299 6.14547 118.323 5.94147 118.359 5.74947H122.619C122.715 5.40147 122.763 5.06547 122.763 4.74147C122.763 3.43347 121.947 2.47347 120.567 2.47347C118.731 2.42547 117.495 4.47747 117.531 6.26547ZM120.531 3.14547C119.595 3.14547 118.803 3.93747 118.491 5.06547H121.923C121.947 4.89747 121.959 4.75347 121.959 4.64547C121.959 3.76947 121.431 3.14547 120.531 3.14547ZM125.946 8.71347C124.614 8.71347 123.594 8.04147 123.594 6.98547L124.338 6.80547C124.386 7.50147 124.938 8.02947 125.934 8.02947C126.906 8.02947 127.47 7.58547 127.47 6.93747C127.47 6.44547 127.17 6.15747 126.45 5.95347L125.778 5.76147C124.854 5.48547 124.338 5.14947 124.338 4.24947C124.338 3.22947 125.274 2.47347 126.51 2.47347C127.83 2.47347 128.61 3.19347 128.682 4.06947L127.926 4.26147C127.854 3.72147 127.458 3.14547 126.51 3.14547C125.574 3.14547 125.106 3.66147 125.106 4.16547C125.106 4.59747 125.358 4.82547 126.03 5.02947L126.714 5.22147C127.77 5.52147 128.298 6.07347 128.298 6.85347C128.298 7.98147 127.386 8.71347 125.946 8.71347ZM3.51653 8.71347C1.26053 8.71347 0.000526942 7.20147 0.000526942 5.13747C-0.035473 2.44947 1.77653 -0.058527 4.39253 0.00147295C6.45653 0.00147295 7.59653 1.34547 7.86053 2.47347L6.96053 2.73747C6.70853 1.92147 6.00053 0.781474 4.35653 0.781474C2.23253 0.733474 0.852527 2.88147 0.888527 5.12547C0.888527 6.81747 1.92053 7.93347 3.54053 7.93347C5.01653 7.93347 5.96453 7.08147 6.52853 5.82147L7.36853 6.21747C7.04453 6.92547 6.56453 7.52547 5.92853 8.00547C5.30453 8.47347 4.50053 8.71347 3.51653 8.71347ZM32.5445 1.36947H33.3725L33.6365 0.157473H32.8085L32.5445 1.36947ZM27.1136 8.55747H26.3216L27.5816 2.64147H28.2896C28.1816 3.10947 27.9296 3.61347 27.5336 4.17747H28.0856C28.5176 3.22947 29.2136 2.55747 30.1736 2.55747C30.5216 2.55747 30.8216 2.60547 30.9776 2.66547L30.7976 3.49347C30.5216 3.43347 30.2576 3.39747 30.0176 3.39747C28.7936 3.39747 27.9896 4.45347 27.6776 5.92947L27.1136 8.55747ZM31.8245 8.55747H31.0325L32.2805 2.64147H33.0845L31.8245 8.55747ZM53.1292 8.55747H52.3372L53.5852 2.64147H54.3892L53.1292 8.55747ZM53.8492 1.36947H54.6772L54.9412 0.157473H54.1132L53.8492 1.36947ZM8.42931 6.20547C8.42931 7.74147 9.40131 8.71347 10.8053 8.71347C12.7253 8.76147 14.0093 6.84147 13.9853 5.00547C13.9853 3.46947 12.9893 2.47347 11.6093 2.47347C9.73731 2.42547 8.40531 4.38147 8.42931 6.20547ZM10.8653 8.00547C12.2813 8.04147 13.1813 6.45747 13.1573 5.01747C13.1573 3.81747 12.4733 3.19347 11.5493 3.19347C10.1573 3.14547 9.23331 4.76547 9.25731 6.18147C9.25731 7.38147 9.94131 8.00547 10.8653 8.00547ZM15.7933 8.55747H15.0013L16.2493 2.64147H17.0413C16.9573 3.02547 16.7293 3.37347 16.3453 3.91347H16.8613C17.0413 3.54147 17.2933 3.21747 17.6053 2.91747C17.9173 2.61747 18.3253 2.47347 18.8173 2.47347C20.0053 2.47347 20.6893 3.22947 20.6893 4.36947C20.6893 4.58547 20.6653 4.82547 20.6053 5.07747L19.8613 8.55747H19.0453L19.7893 5.05347C19.8373 4.86147 19.8613 4.66947 19.8613 4.46547C19.8613 3.64947 19.4053 3.19347 18.6373 3.19347C17.3653 3.19347 16.6453 4.56147 16.4053 5.71347L15.7933 8.55747ZM22.4964 7.33347C22.4964 8.11347 22.9884 8.55747 23.9844 8.55747H25.0884L25.2444 7.83747H24.0444C23.5524 7.83747 23.3004 7.65747 23.3004 7.26147C23.3004 7.17747 23.3124 7.08147 23.3364 6.97347L24.1164 3.31347H25.7724L25.9284 2.64147H24.2604L24.6444 0.829473H23.8404L23.4684 2.64147H22.0284L21.8844 3.31347H23.3124L22.5564 6.85347C22.5204 7.04547 22.4964 7.20147 22.4964 7.33347ZM35.6651 8.23347C35.4011 7.90947 35.2211 7.52547 35.1251 7.05747H34.6451C34.7411 7.48947 34.7891 7.74147 34.7891 8.06547C34.7891 8.22147 34.7771 8.37747 34.7531 8.55747H33.9971L35.7971 0.157473H36.5891L36.1811 2.02947C36.0971 2.40147 35.9891 2.71347 35.8571 2.96547C35.7251 3.21747 35.5451 3.49347 35.2931 3.81747H35.8571C36.3011 2.91747 36.9371 2.47347 37.7651 2.47347C38.9171 2.47347 39.8411 3.36147 39.8411 4.83747C39.8651 6.78147 38.6411 8.76147 36.9131 8.71347C36.3491 8.71347 35.9411 8.55747 35.6651 8.23347ZM39.0251 4.90947C39.0371 6.42147 38.1491 8.04147 36.8291 8.00547C35.9051 8.00547 35.3291 7.41747 35.3291 6.25347C35.3051 4.78947 36.2651 3.14547 37.5371 3.19347C38.3771 3.19347 39.0251 3.75747 39.0251 4.90947ZM48.512 7.33347C48.512 8.11347 49.004 8.55747 50 8.55747H51.104L51.26 7.83747H50.06C49.568 7.83747 49.316 7.65747 49.316 7.26147C49.316 7.17747 49.328 7.08147 49.352 6.97347L50.132 3.31347H51.788L51.944 2.64147H50.276L50.66 0.829473H49.856L49.484 2.64147H48.044L47.9 3.31347H49.328L48.572 6.85347C48.536 7.04547 48.512 7.20147 48.512 7.33347ZM42.9526 8.71347C41.8726 8.71347 41.1886 8.01747 41.1886 6.85347C41.1886 6.60147 41.2246 6.33747 41.2846 6.06147L42.0166 2.64147H42.8206L42.0766 6.15747C42.0286 6.37347 42.0046 6.57747 42.0046 6.75747C42.0046 7.53747 42.4366 8.00547 43.1686 8.00547C43.7566 8.00547 44.2246 7.76547 44.5966 7.29747C44.9686 6.81747 45.2446 6.20547 45.4006 5.47347L46.0006 2.64147H46.8046L45.5446 8.55747H44.8606C44.9566 8.08947 45.2566 7.58547 45.5566 7.20147H45.0166C44.6686 7.84947 44.1646 8.67747 42.9526 8.71347ZM55.4098 6.20547C55.4098 7.74147 56.3818 8.71347 57.7858 8.71347C59.7058 8.76147 60.9898 6.84147 60.9658 5.00547C60.9658 3.46947 59.9698 2.47347 58.5898 2.47347C56.7178 2.42547 55.3858 4.38147 55.4098 6.20547ZM57.8458 8.00547C59.2618 8.04147 60.1618 6.45747 60.1378 5.01747C60.1378 3.81747 59.4538 3.19347 58.5298 3.19347C57.1378 3.14547 56.2138 4.76547 56.2378 6.18147C56.2378 7.38147 56.9218 8.00547 57.8458 8.00547ZM62.7737 8.55747H61.9817L63.2297 2.64147H64.0217C63.9377 3.02547 63.7097 3.37347 63.3257 3.91347H63.8417C64.0217 3.54147 64.2738 3.21747 64.5857 2.91747C64.8977 2.61747 65.3057 2.47347 65.7977 2.47347C66.9857 2.47347 67.6697 3.22947 67.6697 4.36947C67.6697 4.58547 67.6457 4.82547 67.5857 5.07747L66.8417 8.55747H66.0257L66.7697 5.05347C66.8177 4.86147 66.8417 4.66947 66.8417 4.46547C66.8417 3.64947 66.3857 3.19347 65.6177 3.19347C64.3457 3.19347 63.6257 4.56147 63.3857 5.71347L62.7737 8.55747Z" fill="black"/>
</svg>
