<svg width="130" height="10" viewBox="0 0 130 10" fill="none" xmlns="http://www.w3.org/2000/svg">
<path fill-rule="evenodd" clip-rule="evenodd" d="M73.592 5.496C73.592 7.8 74.972 9.156 76.976 9.156C77.744 9.156 78.368 8.964 78.848 8.58C79.34 8.196 79.7 7.752 79.94 7.248H80.42C80.12 7.74 79.868 8.292 79.724 9H80.54L81.404 4.968H77.492L77.336 5.76H80.336C80.024 7.08 78.848 8.364 77.144 8.364C75.584 8.364 74.492 7.308 74.492 5.496C74.468 3.312 75.932 1.176 78.092 1.236C79.604 1.236 80.516 2.172 80.804 3.228L81.704 2.94C81.392 1.704 80.228 0.444 78.164 0.444C75.428 0.372 73.556 2.952 73.592 5.496ZM91.6127 1.812H90.7847L91.0487 0.6H91.8767L91.6127 1.812ZM90.0647 9H89.2727L90.5207 3.084H91.3247L90.0647 9ZM108.445 9H109.237L110.497 3.084H109.693L108.445 9ZM110.785 1.812H109.957L110.221 0.6H111.049L110.785 1.812ZM84.5052 9.156C83.4252 9.156 82.7412 8.46 82.7412 7.296C82.7412 7.044 82.7773 6.78 82.8372 6.504L83.5692 3.084H84.3732L83.6292 6.6C83.5812 6.816 83.5572 7.02 83.5572 7.2C83.5572 7.98 83.9892 8.448 84.7212 8.448C85.3092 8.448 85.7772 8.208 86.1492 7.74C86.5212 7.26 86.7972 6.648 86.9532 5.916L87.5532 3.084H88.3572L87.0972 9H86.4132C86.5092 8.532 86.8092 8.028 87.1092 7.644H86.5692C86.2212 8.292 85.7172 9.12 84.5052 9.156ZM92.3453 6.804C92.3453 8.28 93.2693 9.156 94.4213 9.156C95.2853 9.156 95.9213 8.616 96.3173 7.836H96.8453C96.5453 8.256 96.2933 8.676 96.2333 9H96.9293L98.7173 0.6H97.9133L97.4933 2.604C97.4093 3 97.3733 3.348 97.3733 3.624C97.3733 3.948 97.4333 4.272 97.5533 4.596H97.0613C96.9053 3.648 96.3533 2.916 95.2013 2.916C93.5453 2.868 92.3213 4.86 92.3453 6.804ZM94.6613 8.448C95.9093 8.496 96.8813 6.852 96.8573 5.388C96.8573 4.224 96.2693 3.636 95.3573 3.636C94.0613 3.588 93.1373 5.208 93.1613 6.744C93.1613 7.86 93.8213 8.448 94.6613 8.448ZM101.469 9.156C100.173 9.156 99.2127 8.34 99.2127 6.708C99.1767 4.92 100.413 2.868 102.249 2.916C103.629 2.916 104.445 3.876 104.445 5.184C104.445 5.508 104.397 5.844 104.301 6.192H100.041C100.005 6.384 99.9807 6.588 99.9807 6.792C99.9807 7.74 100.521 8.46 101.493 8.46C102.489 8.46 103.125 7.836 103.497 7.152L104.193 7.512C103.581 8.604 102.681 9.156 101.469 9.156ZM100.173 5.508C100.485 4.38 101.277 3.588 102.213 3.588C103.113 3.588 103.641 4.212 103.641 5.088C103.641 5.196 103.629 5.34 103.605 5.508H100.173ZM105.479 9H106.271L108.059 0.6H107.267L105.479 9ZM112.213 9H111.421L112.669 3.084H113.461C113.377 3.468 113.149 3.816 112.765 4.356H113.281C113.461 3.984 113.713 3.66 114.025 3.36C114.337 3.06 114.745 2.916 115.237 2.916C116.425 2.916 117.109 3.672 117.109 4.812C117.109 5.028 117.085 5.268 117.025 5.52L116.281 9H115.465L116.209 5.496C116.257 5.304 116.281 5.112 116.281 4.908C116.281 4.092 115.825 3.636 115.057 3.636C113.785 3.636 113.065 5.004 112.825 6.156L112.213 9ZM118.467 6.708C118.467 8.34 119.427 9.156 120.723 9.156C121.935 9.156 122.835 8.604 123.447 7.512L122.751 7.152C122.379 7.836 121.743 8.46 120.747 8.46C119.775 8.46 119.235 7.74 119.235 6.792C119.235 6.588 119.259 6.384 119.295 6.192H123.555C123.651 5.844 123.699 5.508 123.699 5.184C123.699 3.876 122.883 2.916 121.503 2.916C119.667 2.868 118.431 4.92 118.467 6.708ZM121.467 3.588C120.531 3.588 119.739 4.38 119.427 5.508H122.859C122.883 5.34 122.895 5.196 122.895 5.088C122.895 4.212 122.367 3.588 121.467 3.588ZM126.881 9.156C125.549 9.156 124.529 8.484 124.529 7.428L125.273 7.248C125.321 7.944 125.873 8.472 126.869 8.472C127.841 8.472 128.405 8.028 128.405 7.38C128.405 6.888 128.105 6.6 127.385 6.396L126.713 6.204C125.789 5.928 125.273 5.592 125.273 4.692C125.273 3.672 126.209 2.916 127.445 2.916C128.765 2.916 129.545 3.636 129.617 4.512L128.861 4.704C128.789 4.164 128.393 3.588 127.445 3.588C126.509 3.588 126.041 4.104 126.041 4.608C126.041 5.04 126.293 5.268 126.965 5.472L127.649 5.664C128.705 5.964 129.233 6.516 129.233 7.296C129.233 8.424 128.321 9.156 126.881 9.156ZM4.45202 9.156C2.19602 9.156 0.93602 7.644 0.93602 5.58C0.90002 2.892 2.71202 0.384 5.32802 0.444C7.39202 0.444 8.53202 1.788 8.79602 2.916L7.89602 3.18C7.64402 2.364 6.93602 1.224 5.29202 1.224C3.16802 1.176 1.78802 3.324 1.82402 5.568C1.82402 7.26 2.85602 8.376 4.47602 8.376C5.95202 8.376 6.90002 7.524 7.46402 6.264L8.30402 6.66C7.98002 7.368 7.50002 7.968 6.86402 8.448C6.24002 8.916 5.43602 9.156 4.45202 9.156ZM33.48 1.812H34.308L34.572 0.6H33.744L33.48 1.812ZM28.0491 9H27.2571L28.5171 3.084H29.2251C29.1171 3.552 28.8651 4.056 28.4691 4.62H29.0211C29.4531 3.672 30.1491 3 31.1091 3C31.4571 3 31.7571 3.048 31.9131 3.108L31.7331 3.936C31.4571 3.876 31.1931 3.84 30.9531 3.84C29.7291 3.84 28.9251 4.896 28.6131 6.372L28.0491 9ZM32.76 9H31.968L33.216 3.084H34.02L32.76 9ZM54.0647 9H53.2727L54.5207 3.084H55.3247L54.0647 9ZM54.7847 1.812H55.6127L55.8767 0.6H55.0487L54.7847 1.812ZM9.3648 6.648C9.3648 8.184 10.3368 9.156 11.7408 9.156C13.6608 9.204 14.9448 7.284 14.9208 5.448C14.9208 3.912 13.9248 2.916 12.5448 2.916C10.6728 2.868 9.3408 4.824 9.3648 6.648ZM11.8008 8.448C13.2168 8.484 14.1168 6.9 14.0928 5.46C14.0928 4.26 13.4088 3.636 12.4848 3.636C11.0928 3.588 10.1688 5.208 10.1928 6.624C10.1928 7.824 10.8768 8.448 11.8008 8.448ZM16.7288 9H15.9368L17.1848 3.084H17.9768C17.8928 3.468 17.6648 3.816 17.2808 4.356H17.7968C17.9768 3.984 18.2288 3.66 18.5408 3.36C18.8528 3.06 19.2608 2.916 19.7528 2.916C20.9408 2.916 21.6248 3.672 21.6248 4.812C21.6248 5.028 21.6008 5.268 21.5408 5.52L20.7968 9H19.9808L20.7248 5.496C20.7728 5.304 20.7968 5.112 20.7968 4.908C20.7968 4.092 20.3408 3.636 19.5728 3.636C18.3008 3.636 17.5808 5.004 17.3408 6.156L16.7288 9ZM23.4319 7.776C23.4319 8.556 23.9239 9 24.9199 9H26.0239L26.1799 8.28H24.9799C24.4879 8.28 24.2359 8.1 24.2359 7.704C24.2359 7.62 24.2479 7.524 24.2719 7.416L25.0519 3.756H26.7079L26.8639 3.084H25.1959L25.5799 1.272H24.7759L24.4039 3.084H22.9639L22.8199 3.756H24.2479L23.4919 7.296C23.4559 7.488 23.4319 7.644 23.4319 7.776ZM36.6006 8.676C36.3366 8.352 36.1566 7.968 36.0606 7.5H35.5806C35.6766 7.932 35.7246 8.184 35.7246 8.508C35.7246 8.664 35.7126 8.82 35.6886 9H34.9326L36.7326 0.6H37.5246L37.1166 2.472C37.0326 2.844 36.9246 3.156 36.7926 3.408C36.6606 3.66 36.4806 3.936 36.2286 4.26H36.7926C37.2366 3.36 37.8726 2.916 38.7006 2.916C39.8526 2.916 40.7766 3.804 40.7766 5.28C40.8006 7.224 39.5766 9.204 37.8486 9.156C37.2846 9.156 36.8766 9 36.6006 8.676ZM39.9606 5.352C39.9726 6.864 39.0846 8.484 37.7646 8.448C36.8406 8.448 36.2646 7.86 36.2646 6.696C36.2406 5.232 37.2006 3.588 38.4726 3.636C39.3126 3.636 39.9606 4.2 39.9606 5.352ZM49.4475 7.776C49.4475 8.556 49.9395 9 50.9355 9H52.0395L52.1955 8.28H50.9955C50.5035 8.28 50.2515 8.1 50.2515 7.704C50.2515 7.62 50.2635 7.524 50.2875 7.416L51.0675 3.756H52.7235L52.8795 3.084H51.2115L51.5955 1.272H50.7915L50.4195 3.084H48.9795L48.8355 3.756H50.2635L49.5075 7.296C49.4715 7.488 49.4475 7.644 49.4475 7.776ZM43.8881 9.156C42.808 9.156 42.1241 8.46 42.1241 7.296C42.1241 7.044 42.16 6.78 42.2201 6.504L42.9521 3.084H43.7561L43.0121 6.6C42.9641 6.816 42.9401 7.02 42.9401 7.2C42.9401 7.98 43.3721 8.448 44.1041 8.448C44.6921 8.448 45.16 8.208 45.5321 7.74C45.9041 7.26 46.18 6.648 46.3361 5.916L46.9361 3.084H47.7401L46.4801 9H45.7961C45.8921 8.532 46.1921 8.028 46.4921 7.644H45.9521C45.6041 8.292 45.1 9.12 43.8881 9.156ZM56.3453 6.648C56.3453 8.184 57.3173 9.156 58.7213 9.156C60.6413 9.204 61.9253 7.284 61.9013 5.448C61.9013 3.912 60.9053 2.916 59.5253 2.916C57.6533 2.868 56.3213 4.824 56.3453 6.648ZM58.7813 8.448C60.1973 8.484 61.0973 6.9 61.0733 5.46C61.0733 4.26 60.3893 3.636 59.4653 3.636C58.0733 3.588 57.1493 5.208 57.1733 6.624C57.1733 7.824 57.8573 8.448 58.7813 8.448ZM63.7092 9H62.9172L64.1652 3.084H64.9572C64.8732 3.468 64.6452 3.816 64.2612 4.356H64.7772C64.9572 3.984 65.2092 3.66 65.5212 3.36C65.8332 3.06 66.2412 2.916 66.7332 2.916C67.9212 2.916 68.6052 3.672 68.6052 4.812C68.6052 5.028 68.5812 5.268 68.5212 5.52L67.7772 9H66.9612L67.7052 5.496C67.7532 5.304 67.7772 5.112 67.7772 4.908C67.7772 4.092 67.3212 3.636 66.5532 3.636C65.2812 3.636 64.5612 5.004 64.3212 6.156L63.7092 9Z" fill="white"/>
</svg>
