<svg width="16" height="16" viewBox="0 0 16 16" fill="none" xmlns="http://www.w3.org/2000/svg">
<path d="M0 4C0 1.79 1.79 0 4 0H12C14.21 0 16 1.79 16 4V12C16 14.21 14.21 16 12 16H4C1.79 16 0 14.21 0 12V4Z" fill="#9747FF"/>
<path fill-rule="evenodd" clip-rule="evenodd" d="M6.813 4.215L6.247 3.649L5.304 3.461L3.85 3.17L3 3L3.17 3.85L3.65 6.247L4.215 6.813L9.968 12.566C10.543 13.141 11.476 13.141 12.05 12.566L12.566 12.05C13.141 11.475 13.141 10.543 12.566 9.968L6.813 4.215ZM6.652 5.185L5.852 4.386L4.02 4.02L4.386 5.853L5.186 6.652L6.652 5.186V5.185ZM7.218 5.751L5.75 7.218L10.534 12C10.796 12.263 11.222 12.263 11.484 12L12 11.485C12.263 11.222 12.263 10.797 12 10.534L7.218 5.75V5.751Z" fill="white"/>
</svg>
