<svg width="16" height="16" viewBox="0 0 16 16" fill="none" xmlns="http://www.w3.org/2000/svg">
<path d="M0 4C0 1.79 1.79 0 4 0H12C14.21 0 16 1.79 16 4V12C16 14.21 14.21 16 12 16H4C1.79 16 0 14.21 0 12V4Z" fill="#0D99FF"/>
<path fill-rule="evenodd" clip-rule="evenodd" d="M8.723 5.467L8.713 5.465L4.957 4.39L7.74 7.175C7.84 7.139 7.947 7.12 8.059 7.12C8.583 7.12 9.007 7.545 9.007 8.07C9.007 8.595 8.583 9.021 8.059 9.021C7.535 9.021 7.11 8.595 7.11 8.071C7.11 7.953 7.132 7.841 7.17 7.736L4.392 4.958L5.422 8.558L5.43 8.588L5.436 8.617C5.688 9.839 6.769 10.757 8.059 10.757C8.353 10.757 8.635 10.709 8.899 10.622L9.367 10.467L9.716 10.817L10.764 11.867L11.87 10.759L10.807 9.694L10.464 9.35L10.611 8.887C10.693 8.63 10.737 8.357 10.737 8.07C10.737 6.82 9.885 5.769 8.732 5.47L8.722 5.467H8.723ZM13 10.76L11.33 12.435L10.764 13.001L10.199 12.435L9.149 11.382C8.806 11.496 8.439 11.557 8.059 11.557C6.38 11.557 4.979 10.365 4.653 8.779L3.259 3.906L3 3L3.906 3.259L8.933 4.695C10.431 5.084 11.537 6.448 11.537 8.07C11.537 8.44 11.48 8.795 11.374 9.13L13 10.76Z" fill="white"/>
</svg>
