<svg width="18" height="16" viewBox="0 0 18 16" fill="none" xmlns="http://www.w3.org/2000/svg">
<g clip-path="url(#clip0_3_10)">
<path d="M8.98958 9.58952C9.87617 9.58952 10.5949 8.8708 10.5949 7.98421C10.5949 7.09763 9.87617 6.37891 8.98958 6.37891C8.103 6.37891 7.38428 7.09763 7.38428 7.98421C7.38428 8.8708 8.103 9.58952 8.98958 9.58952Z" fill="#00D8FF"/>
<path d="M8.98946 4.7207C11.1444 4.7207 13.1465 5.02999 14.6558 5.54935C16.4743 6.17534 17.5926 7.12442 17.5926 7.98383C17.5926 8.87932 16.4075 9.88781 14.4547 10.5345C12.9783 11.0236 11.0351 11.2793 8.98946 11.2793C6.89184 11.2793 4.90617 11.0395 3.4128 10.5292C1.52367 9.88357 0.385742 8.86235 0.385742 7.98383C0.385742 7.13131 1.45365 6.18967 3.24675 5.56473C4.76187 5.03688 6.81333 4.7207 8.98946 4.7207V4.7207Z" stroke="#00D8FF" stroke-width="0.767881" stroke-miterlimit="10"/>
<path d="M6.14857 6.36253C7.22496 4.49569 8.4934 2.91585 9.69764 1.8681C11.1486 0.605504 12.5295 0.111074 13.2738 0.540252C14.0494 0.987467 14.3311 2.51797 13.9157 4.53336C13.6016 6.05696 12.8525 7.86757 11.8303 9.63999C10.7825 11.457 9.58252 13.0575 8.39472 14.0962C6.8918 15.4103 5.43822 15.8856 4.67748 15.4469C3.93902 15.0209 3.65679 13.6257 4.01064 11.7599C4.30984 10.1822 5.06104 8.24741 6.14857 6.36253V6.36253Z" stroke="#00D8FF" stroke-width="0.767881" stroke-miterlimit="10"/>
<path d="M6.1514 9.64335C5.07183 7.77809 4.33655 5.89056 4.02992 4.32398C3.66069 2.43645 3.9217 0.992948 4.66546 0.562709C5.44053 0.113902 6.90684 0.634327 8.4453 2.00037C9.6087 3.03327 10.8029 4.58658 11.8278 6.3574C12.8787 8.17279 13.6665 10.0115 13.9726 11.559C14.3604 13.5176 14.0464 15.0142 13.2862 15.454C12.5482 15.881 11.1986 15.429 9.75883 14.1903C8.54292 13.1436 7.24159 11.5266 6.1514 9.64335V9.64335Z" stroke="#00D8FF" stroke-width="0.767881" stroke-miterlimit="10"/>
</g>
<defs>
<clipPath id="clip0_3_10">
<rect width="17.9788" height="16" fill="white"/>
</clipPath>
</defs>
</svg>
