<svg width="14" height="16" viewBox="0 0 14 16" fill="none" xmlns="http://www.w3.org/2000/svg">
<g clip-path="url(#clip0_3_3)">
<path d="M12.4648 2.11719C10.9792 -0.00911246 8.04427 -0.639321 5.92317 0.712241L2.19661 3.08724C1.69247 3.40327 1.25985 3.82106 0.926446 4.31388C0.593041 4.8067 0.36619 5.36369 0.26041 5.94922C0.213157 6.2131 0.189194 6.48062 0.188795 6.7487C0.191147 7.47756 0.369844 8.19503 0.709629 8.83984C0.390971 9.32384 0.173503 9.86729 0.0703058 10.4375C-0.0353366 11.0349 -0.0206502 11.6473 0.113504 12.2389C0.247658 12.8306 0.498579 13.3894 0.851556 13.8828C2.33723 16.0091 5.27864 16.6393 7.39322 15.2878L11.1159 12.9128C11.6197 12.5963 12.0518 12.178 12.3843 11.6847C12.7169 11.1914 12.9426 10.6339 13.0469 10.0482C13.0948 9.78482 13.1187 9.51768 13.1185 9.25C13.1176 8.52258 12.9411 7.80612 12.6042 7.16146C12.9227 6.67786 13.1401 6.13487 13.2435 5.56511C13.2897 5.30154 13.3132 5.03451 13.3138 4.76693C13.314 3.81757 13.0172 2.89194 12.4648 2.11979V2.11719Z" fill="#FF3E00"/>
<path d="M5.5586 14.0833C5.31533 14.1462 5.06509 14.1782 4.81381 14.1784C4.33584 14.1785 3.86497 14.0627 3.44157 13.8409C3.01817 13.6191 2.65487 13.298 2.38282 12.9049C2.05056 12.4405 1.87207 11.8836 1.87241 11.3125C1.87259 11.1519 1.88653 10.9916 1.91407 10.8333C1.93619 10.7156 1.96621 10.5994 2.00392 10.4857L2.07423 10.2721L2.26433 10.4167C2.70566 10.7405 3.19878 10.9871 3.72267 11.1458L3.86069 11.1875L3.84767 11.3255C3.84767 11.349 3.84767 11.3737 3.84767 11.3971C3.8474 11.5698 3.90112 11.7383 4.00131 11.8789C4.08228 11.9987 4.19126 12.0968 4.31879 12.1649C4.44631 12.233 4.58853 12.2689 4.73308 12.2695C4.80867 12.2698 4.88396 12.2602 4.95704 12.2409C5.03812 12.2194 5.11541 12.1856 5.18621 12.1406L8.90886 9.75391C9.02054 9.68319 9.11245 9.58529 9.17598 9.46938C9.23952 9.35347 9.27261 9.22333 9.27215 9.09115C9.27109 8.91847 9.216 8.75045 9.11459 8.61068C9.03239 8.49242 8.92277 8.39584 8.79511 8.32917C8.66745 8.26251 8.52554 8.22775 8.38152 8.22786C8.30594 8.2276 8.23065 8.23723 8.15756 8.25651C8.07674 8.27754 7.99981 8.31139 7.9297 8.35677L6.51043 9.26302C6.27647 9.41127 6.02141 9.52322 5.75392 9.59505C5.51061 9.65777 5.26039 9.68971 5.00913 9.6901C4.53133 9.69004 4.06065 9.57429 3.63731 9.35276C3.21397 9.13122 2.85056 8.81049 2.57814 8.41797C2.24627 7.95328 2.06782 7.39655 2.06772 6.82552C2.0679 6.6649 2.08184 6.50459 2.10939 6.34635C2.17304 5.99441 2.30916 5.65953 2.5091 5.36298C2.70905 5.06643 2.96845 4.81468 3.27084 4.6237L6.99741 2.25C7.23123 2.10119 7.48631 1.9888 7.75392 1.91667C7.99727 1.8543 8.2475 1.8228 8.49871 1.82292C8.97769 1.82169 9.44982 1.93668 9.8746 2.15802C10.2994 2.37937 10.6641 2.70046 10.9375 3.09375C11.2673 3.55957 11.4435 4.11674 11.4414 4.6875C11.4412 4.84855 11.4273 5.00929 11.3998 5.16797C11.3776 5.28574 11.3476 5.40189 11.3099 5.51562L11.2396 5.72917L11.0495 5.58984C10.6085 5.26548 10.1153 5.01887 9.59116 4.86068L9.45314 4.81771L9.46616 4.67969C9.46616 4.65625 9.46616 4.63151 9.46616 4.60807C9.46618 4.43503 9.41249 4.26624 9.31251 4.125C9.23043 4.00693 9.12102 3.91045 8.9936 3.8438C8.86618 3.77714 8.72454 3.74228 8.58074 3.74219C8.5058 3.74384 8.43139 3.75522 8.35939 3.77604C8.27802 3.7967 8.20061 3.83057 8.13022 3.8763L4.40366 6.25C4.31244 6.30788 4.23421 6.38405 4.17392 6.4737C4.11363 6.56334 4.07259 6.66452 4.0534 6.77083C4.04421 6.81634 4.03855 6.86248 4.03647 6.90885C4.03639 7.08111 4.0901 7.24908 4.19011 7.38932C4.27212 7.50747 4.38151 7.60401 4.50895 7.67067C4.63638 7.73734 4.77807 7.77215 4.92189 7.77214C4.99747 7.7724 5.07276 7.76277 5.14584 7.74349C5.22712 7.7226 5.3045 7.68874 5.37501 7.64323L6.79689 6.73177C7.03072 6.58329 7.28582 6.47133 7.5534 6.39974C7.79669 6.33694 8.04692 6.305 8.29819 6.30469C8.77619 6.30466 9.24709 6.42035 9.67065 6.64188C10.0942 6.86341 10.4578 7.1842 10.7305 7.57682C11.0623 8.04151 11.2408 8.59825 11.2409 9.16927C11.2412 9.3317 11.2269 9.49382 11.1979 9.65365C11.1346 10.0057 10.9986 10.3407 10.7986 10.6373C10.5986 10.9339 10.3391 11.1856 10.0365 11.3763L6.31642 13.75C6.08219 13.8989 5.82666 14.0113 5.5586 14.0833V14.0833Z" fill="white"/>
</g>
<defs>
<clipPath id="clip0_3_3">
<rect width="13.3138" height="16" fill="white"/>
</clipPath>
</defs>
</svg>
