<svg width="16" height="16" viewBox="0 0 16 16" fill="none" xmlns="http://www.w3.org/2000/svg">
<path fill-rule="evenodd" clip-rule="evenodd" d="M4.00006 16.0001H12.0001C14.2092 16.0001 16.0001 14.2092 16.0001 12.0001V4.00006C16.0001 2.89549 15.5523 1.89549 14.8285 1.17163L1.17163 14.8285C1.89549 15.5523 2.89549 16.0001 4.00006 16.0001Z" fill="#9747FF"/>
<path fill-rule="evenodd" clip-rule="evenodd" d="M14.8284 1.17157C14.1046 0.447715 13.1046 0 12 0H4C1.79086 0 0 1.79086 0 4V12C0 13.1046 0.447715 14.1046 1.17157 14.8284L14.8284 1.17157Z" fill="#0D99FF"/>
<path fill-rule="evenodd" clip-rule="evenodd" d="M5.99998 4.39998C5.11598 4.39998 4.39998 5.11598 4.39998 5.99998C4.39998 6.88398 5.11598 7.59998 5.99998 7.59998V8.39998C4.67498 8.39998 3.59998 7.32498 3.59998 5.99998C3.59998 4.67498 4.67498 3.59998 5.99998 3.59998C7.32498 3.59998 8.39998 4.67498 8.39998 5.99998V9.99998C8.39998 10.884 9.11598 11.6 9.99998 11.6C10.884 11.6 11.6 10.884 11.6 9.99998C11.6 9.11598 10.884 8.39998 9.99998 8.39998V7.59998C11.325 7.59998 12.4 8.67498 12.4 9.99998C12.4 11.325 11.325 12.4 9.99998 12.4C8.67498 12.4 7.59998 11.325 7.59998 9.99998V5.99998C7.59998 5.11598 6.88398 4.39998 5.99998 4.39998Z" fill="white"/>
</svg>
